<svg xmlns="http://www.w3.org/2000/svg" width="38.19" height="40" viewBox="0 0 38.19 40">
    <path d="M34.895 20.8a11.25 11.25 0 1 1-15.91 0 11.25 11.25 0 0 1 15.91 0zM17.878 0a9.106 9.106 0 0 1 7.588 4.144c.805 1.325 1.219 3.4 1.308 6.272h7.709a1.25 1.25 0 0 1 1.25 1.25v5.849a1.25 1.25 0 1 1-2.5 0v-4.6H2.5V37h14.409a1.25 1.25 0 1 1 0 2.5H1.25A1.25 1.25 0 0 1 0 38.246V11.667a1.25 1.25 0 0 1 1.25-1.25h7.593l.008-.191A13.1 13.1 0 0 1 10 4.588 9.087 9.087 0 0 1 17.878 0zm2.875 22.563a8.75 8.75 0 1 0 12.374 0 8.75 8.75 0 0 0-12.374 0zm6.187-.063a1.25 1.25 0 0 1 1.25 1.25v3.75h3.75a1.25 1.25 0 0 1 0 2.5h-3.75v3.75a1.25 1.25 0 1 1-2.5 0V30h-3.75a1.25 1.25 0 1 1 0-2.5h3.75v-3.75a1.25 1.25 0 0 1 1.25-1.25zm-9.062-20a6.59 6.59 0 0 0-5.708 3.327 11.554 11.554 0 0 0-.825 4.589h12.927v-.05a11.228 11.228 0 0 0-.941-4.924A6.613 6.613 0 0 0 17.878 2.5z"/>
</svg>
